<svg xmlns="http://www.w3.org/2000/svg" width="18" height="18" viewBox="0 0 18 18">
  <g id="box" transform="translate(0 0)">
    <path id="Path_166" data-name="Path 166" d="M12.315,1.447,4.147,5.629.9,4.031,8.924.069a.658.658,0,0,1,.585,0Z" transform="translate(-0.225)" fill="#2b7259"/>
    <path id="Path_167" data-name="Path 167" d="M19.13,4.766,10.818,8.884,7.706,7.35l-.45-.229L15.433,2.94l.45.228Z" transform="translate(-1.814 -0.735)" fill="#2b7259"/>
    <path id="Path_168" data-name="Path 168" d="M8.338,11.074l-.009,8.665L.369,15.585A.7.7,0,0,1,0,14.973V6.957L3.373,8.619v2.922a.675.675,0,1,0,1.35,0V9.295l.45.219Z" transform="translate(0 -1.739)" fill="#2b7259"/>
    <path id="Path_169" data-name="Path 169" d="M21.217,6.969l-8.3,4.1-.009,8.665,8.32-4.345Z" transform="translate(-3.227 -1.742)" fill="#2b7259"/>
  </g>
</svg>
