<svg xmlns="http://www.w3.org/2000/svg" width="18" height="17.983" viewBox="0 0 18 17.983">
  <g id="driver" transform="translate(0 -0.245)">
    <g id="Group_299" data-name="Group 299" transform="translate(0 0.245)">
      <path id="Path_177" data-name="Path 177" d="M16.906,13.931l-.454-.24a12.634,12.634,0,0,0-3.426-1.416l-.293-1.756a6.184,6.184,0,0,0,.767-3V6.163l.007-.005a2.073,2.073,0,0,0,.743-1.606A4.233,4.233,0,0,0,10.5.245V2.478a.75.75,0,0,1-.75.75H8.25a.75.75,0,0,1-.75-.75V.245A4.232,4.232,0,0,0,3.75,4.551a2.073,2.073,0,0,0,.743,1.606l.007.005V7.521a6.191,6.191,0,0,0,.767,3l-.293,1.756a12.637,12.637,0,0,0-3.426,1.416l-.453.24A2.042,2.042,0,0,0,0,15.744v1.734a.75.75,0,0,0,.75.75h16.5a.75.75,0,0,0,.75-.75V15.744A2.043,2.043,0,0,0,16.906,13.931Zm-9.593-.009-.927-1,.142-.853c.079.065.166.11.248.167.061.043.124.086.187.126a4.047,4.047,0,0,0,.38.214,3.887,3.887,0,0,0,.416.178c.039.014.076.037.115.049Zm3.373,0-.56-1.12c.04-.013.076-.035.115-.049a3.906,3.906,0,0,0,.416-.178,4.043,4.043,0,0,0,.379-.214c.063-.04.125-.083.187-.126.082-.058.169-.1.248-.167l.142.853Zm.555-3.828a3.957,3.957,0,0,1-.287.38c-.061.071-.124.142-.19.208s-.12.116-.182.169a3.019,3.019,0,0,1-.368.267c-.045.028-.092.052-.137.076a2.447,2.447,0,0,1-.457.192c-.025.007-.049.011-.074.016a2,2,0,0,1-1.091,0c-.025-.006-.05-.01-.074-.016a2.449,2.449,0,0,1-.457-.192c-.046-.024-.092-.048-.137-.076a2.967,2.967,0,0,1-.369-.267c-.062-.053-.122-.11-.182-.169s-.128-.137-.19-.208a3.958,3.958,0,0,1-.287-.38A4.672,4.672,0,0,1,6,7.521V6.594a1.8,1.8,0,0,0,.244-.03A13.538,13.538,0,0,1,8.95,6.232c.112,0,.227-.005.336,0a13.941,13.941,0,0,1,2.479.335A1.607,1.607,0,0,0,12,6.594v.927h0A4.673,4.673,0,0,1,11.241,10.094Z" transform="translate(0 -0.245)" fill="#2b7259"/>
    </g>
  </g>
</svg>
