<svg xmlns="http://www.w3.org/2000/svg" width="19" height="13.252" viewBox="0 0 19 13.252">
  <g id="track" transform="translate(0 -77.442)">
    <g id="Group_290" data-name="Group 290" transform="translate(2.834 80.276)">
      <g id="Group_289" data-name="Group 289" transform="translate(0 0)">
        <path id="Path_172" data-name="Path 172" d="M76.744,153.822a.365.365,0,1,0,.365.365A.366.366,0,0,0,76.744,153.822Z" transform="translate(-76.379 -153.822)" fill="#2b7259"/>
      </g>
    </g>
    <g id="Group_292" data-name="Group 292" transform="translate(0 77.442)">
      <g id="Group_291" data-name="Group 291" transform="translate(0 0)">
        <path id="Path_173" data-name="Path 173" d="M3.2,77.442a3.2,3.2,0,0,0-3.2,3.2,6.639,6.639,0,0,0,1.417,3.394A18.927,18.927,0,0,0,2.781,85.8a.561.561,0,0,0,.836,0,18.9,18.9,0,0,0,1.365-1.763A6.638,6.638,0,0,0,6.4,80.642,3.2,3.2,0,0,0,3.2,77.442Zm0,4.687a1.487,1.487,0,1,1,1.487-1.487A1.489,1.489,0,0,1,3.2,82.129Z" transform="translate(0 -77.442)" fill="#2b7259"/>
      </g>
    </g>
    <g id="Group_294" data-name="Group 294" transform="translate(4.926 84.864)">
      <g id="Group_293" data-name="Group 293" transform="translate(0 0)">
        <path id="Path_174" data-name="Path 174" d="M141.048,282.148h-1.4a1.8,1.8,0,0,1-1.793-1.793,2.919,2.919,0,0,0-2.915-2.915H133.6c-.31.441-.611.83-.847,1.122h2.2a1.8,1.8,0,0,1,1.793,1.793,2.919,2.919,0,0,0,2.915,2.915H141.9C141.659,282.977,141.358,282.589,141.048,282.148Z" transform="translate(-132.748 -277.439)" fill="#2b7259"/>
      </g>
    </g>
    <g id="Group_296" data-name="Group 296" transform="translate(15.435 84.985)">
      <g id="Group_295" data-name="Group 295" transform="translate(0 0)">
        <path id="Path_175" data-name="Path 175" d="M416.3,280.71a.365.365,0,1,0,.365.365A.366.366,0,0,0,416.3,280.71Z" transform="translate(-415.933 -280.71)" fill="#2b7259"/>
      </g>
    </g>
    <g id="Group_298" data-name="Group 298" transform="translate(12.601 82.151)">
      <g id="Group_297" data-name="Group 297" transform="translate(0 0)">
        <path id="Path_176" data-name="Path 176" d="M342.755,204.331a3.2,3.2,0,0,0-3.2,3.2,6.639,6.639,0,0,0,1.417,3.394,18.92,18.92,0,0,0,1.364,1.763.561.561,0,0,0,.837,0,18.9,18.9,0,0,0,1.364-1.763,6.638,6.638,0,0,0,1.417-3.394A3.2,3.2,0,0,0,342.755,204.331Zm0,4.687a1.487,1.487,0,1,1,1.487-1.487A1.489,1.489,0,0,1,342.755,209.018Z" transform="translate(-339.555 -204.331)" fill="#2b7259"/>
      </g>
    </g>
  </g>
</svg>
