<svg xmlns="http://www.w3.org/2000/svg" xmlns:xlink="http://www.w3.org/1999/xlink" width="33" height="23.017" viewBox="0 0 33 23.017">
  <defs>
    <linearGradient id="linear-gradient" x1="0.5" x2="0.5" y2="1" gradientUnits="objectBoundingBox">
      <stop offset="0" stop-color="#468035"/>
      <stop offset="1"/>
    </linearGradient>
  </defs>
  <g id="track" transform="translate(0 -77.442)">
    <g id="Group_290" data-name="Group 290" transform="translate(4.923 82.365)">
      <g id="Group_289" data-name="Group 289" transform="translate(0 0)">
        <path id="Path_172" data-name="Path 172" d="M77.013,153.822a.634.634,0,1,0,.634.634A.635.635,0,0,0,77.013,153.822Z" transform="translate(-76.379 -153.822)" fill="url(#linear-gradient)"/>
      </g>
    </g>
    <g id="Group_292" data-name="Group 292" transform="translate(0 77.442)">
      <g id="Group_291" data-name="Group 291" transform="translate(0 0)">
        <path id="Path_173" data-name="Path 173" d="M5.557,77.442A5.564,5.564,0,0,0,0,83c0,1.518.828,3.5,2.461,5.895a32.874,32.874,0,0,0,2.37,3.062.974.974,0,0,0,1.453,0,32.834,32.834,0,0,0,2.37-3.062C10.287,86.5,11.115,84.517,11.115,83A5.564,5.564,0,0,0,5.557,77.442Zm0,8.14A2.583,2.583,0,1,1,8.14,83,2.586,2.586,0,0,1,5.557,85.582Z" transform="translate(0 -77.442)" fill="url(#linear-gradient)"/>
      </g>
    </g>
    <g id="Group_294" data-name="Group 294" transform="translate(8.556 90.332)">
      <g id="Group_293" data-name="Group 293" transform="translate(0 0)">
        <path id="Path_174" data-name="Path 174" d="M147.164,285.617H144.74a3.119,3.119,0,0,1-3.115-3.115,5.069,5.069,0,0,0-5.063-5.063H134.22c-.538.767-1.061,1.441-1.472,1.948h3.814a3.118,3.118,0,0,1,3.115,3.115,5.069,5.069,0,0,0,5.063,5.063h3.9C148.226,287.058,147.7,286.384,147.164,285.617Z" transform="translate(-132.748 -277.439)" fill="url(#linear-gradient)"/>
      </g>
    </g>
    <g id="Group_296" data-name="Group 296" transform="translate(26.808 90.543)">
      <g id="Group_295" data-name="Group 295" transform="translate(0 0)">
        <path id="Path_175" data-name="Path 175" d="M416.568,280.71a.634.634,0,1,0,.634.635A.635.635,0,0,0,416.568,280.71Z" transform="translate(-415.933 -280.71)" fill="url(#linear-gradient)"/>
      </g>
    </g>
    <g id="Group_298" data-name="Group 298" transform="translate(21.885 85.62)">
      <g id="Group_297" data-name="Group 297" transform="translate(0 0)">
        <path id="Path_176" data-name="Path 176" d="M345.112,204.331a5.564,5.564,0,0,0-5.557,5.557c0,1.518.828,3.5,2.461,5.895a32.859,32.859,0,0,0,2.37,3.062.974.974,0,0,0,1.453,0,32.832,32.832,0,0,0,2.37-3.062c1.633-2.394,2.461-4.377,2.461-5.895A5.564,5.564,0,0,0,345.112,204.331Zm0,8.14a2.583,2.583,0,1,1,2.583-2.583A2.586,2.586,0,0,1,345.112,212.471Z" transform="translate(-339.555 -204.331)" fill="url(#linear-gradient)"/>
      </g>
    </g>
  </g>
</svg>
